<svg xmlns="http://www.w3.org/2000/svg" xml:space="preserve" id="Layer_1" x="0" y="0" style="enable-background:new 0 0 250 60" version="1.1" viewBox="0 0 250 60"><style>.st1{stroke:#fff;stroke-miterlimit:10}</style><switch><g><path d="M10.425 25.922v2.657c0 1.854 2.356 2.907 5.163 2.907s4.812-1.002 4.812-2.907c0-2.757-3.96-3.609-7.719-5.113-4.862-1.854-9.424-4.21-9.424-10.777 0-7.97 6.517-10.476 12.882-10.476 6.115 0 12.181 2.306 12.181 6.867v5.313H20.3v-2.255c0-1.404-1.905-2.155-4.161-2.155-2.055 0-3.859.602-3.859 2.456 0 2.456 2.957 3.509 6.215 4.662 5.463 1.905 10.927 4.16 10.927 10.927 0 8.17-7.018 11.228-13.834 11.228-6.667 0-13.183-2.957-13.183-8.722v-4.612h8.02zM31.881 12.84h13.734v6.266h-2.556l1.905 8.973c.301 1.503.401 3.408.401 3.408h.201s.05-1.905.401-3.408l3.559-15.238h7.418l3.559 15.238c.351 1.503.401 3.408.401 3.408h.2s.1-1.905.401-3.408l1.905-8.973h-2.556V12.84h13.734v6.266H71.63l-4.912 19.549H56.693l-2.907-11.93c-.401-1.604-.451-3.409-.451-3.409h-.2s-.05 1.805-.451 3.409l-2.907 11.93H39.751l-4.913-19.549h-2.957V12.84zM90.031 22.614h1.554v-.752c0-2.105-1.704-2.857-3.659-2.857-3.509 0-7.118 2.456-7.118 2.456L77.8 15.597s4.411-3.358 10.927-3.358c7.519 0 11.529 3.759 11.529 10.526v8.521c0 .702.401 1.103 1.103 1.103h1.905v6.266h-7.469c-2.506 0-3.458-1.453-3.458-2.706v-.15c0-.451.1-.803.1-.803h-.1s-2.105 4.261-7.619 4.261c-4.511 0-8.471-2.757-8.471-7.97-.001-7.57 9.774-8.673 13.784-8.673zM87.273 32.99c2.206 0 4.411-2.657 4.411-4.912v-.602h-.802c-2.857 0-5.915.902-5.915 3.208.001 1.354.903 2.306 2.306 2.306zM106.424 32.389h3.258v-12.18c0-.702-.401-1.103-1.103-1.103h-2.406V12.84h8.221c2.356 0 3.559 1.153 3.559 2.907v.852c0 .251-.05.602-.05.602h.1s2.256-4.962 8.773-4.962c4.861 0 8.722 2.406 8.722 9.674v10.476h3.258v6.266h-11.93V23.517c0-2.406-.953-3.409-2.908-3.409-3.86 0-5.564 4.01-5.564 7.619v4.662h3.258v6.266h-15.188v-6.266zM141.164 29.532h7.268v1.303c0 1.153 1.254 1.854 3.76 1.854 2.055 0 3.158-.501 3.158-1.504 0-1.604-1.755-1.804-5.062-2.907-3.76-1.253-8.221-3.058-8.221-8.271 0-6.065 6.115-7.77 11.077-7.77 3.96 0 9.875 1.404 9.875 5.614v3.509h-7.269v-1.153c0-.802-.752-1.404-2.606-1.404-1.403 0-2.456.301-2.456 1.303 0 1.554 2.056 2.155 4.512 2.807 3.909 1.053 8.771 2.657 8.771 8.02 0 5.815-5.664 8.321-11.779 8.321-4.611 0-11.027-1.955-11.027-6.266v-3.456zM181.166 12.238c8.17 0 14.687 5.464 14.687 13.584 0 8.07-6.517 13.434-14.637 13.434s-14.637-5.363-14.637-13.434c0-8.12 6.517-13.584 14.587-13.584zm.05 19.8c3.158 0 5.864-2.356 5.864-6.216 0-3.91-2.706-6.366-5.864-6.366s-5.864 2.456-5.864 6.366c0 3.86 2.706 6.216 5.864 6.216zM199.213 32.389h3.258v-12.18c0-.702-.401-1.103-1.103-1.103h-2.406V12.84h8.221c2.355 0 3.559 1.153 3.559 2.907v.852c0 .251-.05.602-.05.602h.101s2.255-4.962 8.771-4.962c4.862 0 8.722 2.406 8.722 9.674v10.476h3.258v6.266h-11.93V23.517c0-2.406-.952-3.409-2.907-3.409-3.859 0-5.563 4.01-5.563 7.619v4.662h3.258v6.266h-15.188v-6.266z"/><g style="opacity:.8"><path d="M31.84 45.283v2.638c0 1.842 2.339 2.887 5.126 2.887 2.788 0 4.778-.995 4.778-2.887 0-2.737-3.932-3.583-7.665-5.077-4.828-1.841-9.358-4.181-9.358-10.701 0-7.914 6.471-10.402 12.792-10.402 6.073 0 12.095 2.289 12.095 6.818v5.276h-7.964v-2.239c0-1.395-1.891-2.141-4.131-2.141-2.041 0-3.833.598-3.833 2.438 0 2.439 2.937 3.484 6.172 4.629 5.426 1.892 10.851 4.132 10.851 10.852 0 8.113-6.968 11.149-13.738 11.149-6.62 0-13.09-2.938-13.09-8.661v-4.579h7.965zM68.37 31.694c8.113 0 14.584 5.426 14.584 13.489 0 8.014-6.471 13.34-14.534 13.34s-14.534-5.326-14.534-13.34c0-8.063 6.47-13.489 14.484-13.489zm.05 19.661c3.136 0 5.824-2.339 5.824-6.172 0-3.883-2.688-6.321-5.824-6.321s-5.823 2.438-5.823 6.321c0 3.834 2.687 6.172 5.823 6.172zM86.285 51.704h3.235v-13.19h-3.484v-6.222h3.484v-1.045c0-8.412 7.367-9.507 11.349-9.507 1.742 0 3.036.199 3.036.199v6.769s-.647-.149-2.09-.149c-1.245 0-3.684.05-3.684 2.489v1.244h5.276v6.222h-5.276v13.19h3.783v6.222H86.285v-6.222zM109.178 38.514h-3.484v-6.222h3.733v-6.919h8.362v6.919h5.375v6.222h-5.375v9.059c0 3.087 2.937 3.534 4.579 3.534.697 0 1.145-.05 1.145-.05v6.969s-.945.149-2.339.149c-4.081 0-11.996-1.095-11.996-9.706v-9.955zM125.551 32.292h13.638v6.222h-2.538l1.892 8.91c.298 1.493.397 3.384.397 3.384h.199s.05-1.891.398-3.384l3.534-15.132h7.366l3.534 15.132c.349 1.493.398 3.384.398 3.384h.198s.1-1.891.398-3.384l1.892-8.91h-2.538v-6.222h13.638v6.222h-2.937l-4.878 19.412h-9.955L147.3 46.079c-.398-1.593-.448-3.384-.448-3.384h-.199s-.05 1.791-.447 3.384l-2.887 11.847h-9.955l-4.878-19.412h-2.937v-6.222zM183.284 41.998h1.543v-.747c0-2.09-1.692-2.837-3.634-2.837-3.484 0-7.068 2.439-7.068 2.439l-2.986-5.824s4.381-3.335 10.851-3.335c7.467 0 11.448 3.733 11.448 10.453v8.462c0 .696.398 1.095 1.096 1.095h1.891v6.222h-7.416c-2.488 0-3.435-1.443-3.435-2.688v-.149c0-.448.1-.797.1-.797h-.1s-2.09 4.231-7.565 4.231c-4.479 0-8.412-2.738-8.412-7.914-.001-7.516 9.705-8.611 13.687-8.611zm-2.738 10.304c2.19 0 4.381-2.639 4.381-4.878v-.598h-.797c-2.837 0-5.873.896-5.873 3.186 0 1.343.895 2.29 2.289 2.29zM199.407 51.704h3.484V39.609c0-.697-.398-1.096-1.096-1.096h-2.389v-6.222h8.113c2.339 0 3.633.946 3.633 3.285v1.344c0 .797-.1 1.294-.1 1.294h.1c1.096-3.483 4.331-6.371 8.163-6.371.498 0 .996.1.996.1v8.462s-.697-.149-1.742-.149c-4.778 0-7.068 3.036-7.068 7.715v3.733h3.484v6.222h-15.579v-6.222zM235.74 31.694c7.665 0 11.945 5.276 11.945 12.395 0 .846-.199 2.588-.199 2.588h-16.275c.646 3.285 3.235 4.729 5.973 4.729 3.783 0 7.217-2.438 7.217-2.438l3.136 5.973s-4.131 3.584-11.05 3.584c-9.158 0-14.086-6.62-14.086-13.439-.001-7.518 5.077-13.392 13.339-13.392zm3.036 10.254c0-2.041-1.344-3.783-3.235-3.783-2.488 0-3.684 1.792-4.131 3.783h7.366z" class="st1"/></g></g></switch></svg>