<svg xmlns="http://www.w3.org/2000/svg" xml:space="preserve" style="enable-background:new 0 0 32 32" viewBox="0 0 32 32"><switch><g><path d="M5.702 16.786v1.879c0 1.312 1.666 2.057 3.652 2.057 1.985 0 3.404-.709 3.404-2.057 0-1.95-2.802-2.553-5.461-3.617C3.857 13.736.63 12.069.63 7.424.63 1.786 5.239.013 9.743.013c4.326 0 8.618 1.631 8.618 4.858V8.63h-5.674V7.034c0-.993-1.348-1.525-2.943-1.525-1.454 0-2.73.426-2.73 1.738 0 1.738 2.093 2.482 4.397 3.298 3.865 1.347 7.731 2.944 7.731 7.731 0 5.78-4.965 7.943-9.788 7.943-4.717 0-9.327-2.093-9.327-6.171v-3.262h5.675z"/><g style="opacity:.8"><path d="M18.566 22.541v1.879c0 1.312 1.666 2.057 3.652 2.057 1.985 0 3.404-.709 3.404-2.057 0-1.95-2.802-2.553-5.461-3.617-3.44-1.312-6.667-2.979-6.667-7.624 0-5.638 4.609-7.411 9.113-7.411 4.326 0 8.617 1.631 8.617 4.858v3.759H25.55v-1.596c0-.993-1.348-1.525-2.943-1.525-1.454 0-2.73.426-2.73 1.738 0 1.738 2.093 2.482 4.397 3.298 3.865 1.347 7.73 2.944 7.73 7.731 0 5.78-4.965 7.943-9.787 7.943-4.717 0-9.326-2.093-9.326-6.171v-3.262h5.675z" style="stroke:#fff;stroke-width:.25;stroke-miterlimit:10"/></g></g></switch></svg>