<svg xmlns="http://www.w3.org/2000/svg" id="Layer_1" viewBox="0 0 225.51 14.18"><defs><style>.st0{stroke:#000;stroke-miterlimit:10}</style></defs><g style="opacity:.8"><path d="M6.05 2.21c1.13 0 3.44.41 3.44 1.73v.82H8.9v-.7c0-.96-1.78-1.34-2.84-1.34-2.36 0-4.16 1.69-4.16 3.93s1.78 4.05 4.2 4.05c.85 0 2.94-.32 2.94-1.33v-.68h.59v.81c0 1.24-2.23 1.72-3.54 1.72-2.8 0-4.81-2.04-4.81-4.56s2.07-4.45 4.77-4.45ZM14.67 4.7c1.93 0 3.5 1.41 3.5 3.22s-1.57 3.3-3.5 3.3-3.5-1.44-3.5-3.3 1.57-3.22 3.5-3.22Zm0 6.01c1.61 0 2.9-1.21 2.9-2.79s-1.3-2.71-2.9-2.71-2.9 1.17-2.9 2.71 1.3 2.79 2.9 2.79ZM19.38 10.58h1.22V5.61c0-.19-.11-.27-.3-.27h-.99v-.48h1.07c.55 0 .78.21.78.68v.41c0 .29-.05.51-.05.51h.03c.23-.58 1.17-1.75 2.86-1.75s2.23.96 2.23 2.42v3.46h1.22v.48h-1.78V7.31c0-1.08-.15-2.1-1.66-2.1-1.61 0-2.84 1.27-2.84 2.77v2.6h1.22v.48h-3v-.48ZM28.36 9.21h.57v.47c0 .72 1.15 1.02 1.96 1.02.93 0 1.77-.4 1.77-1.13 0-.81-.96-1.11-1.94-1.46-1.03-.36-2.08-.77-2.08-1.82s1.11-1.6 2.19-1.6c.88 0 2.16.36 2.16 1.18v.68h-.57v-.51c0-.52-.78-.85-1.57-.85-.84 0-1.62.36-1.62 1.06 0 .76.9 1.07 1.85 1.41 1.05.37 2.17.78 2.17 1.85 0 .99-.95 1.69-2.42 1.69-1.26 0-2.47-.54-2.47-1.47V9.2ZM35.43 5.33h-1.28v-.48h1.28V3.12H36v1.73h1.77v.48H36v3.44c0 1.64 1.07 1.85 1.61 1.85.19 0 .31-.02.31-.02v.48s-.13.02-.34.02c-.7 0-2.15-.24-2.15-2.3V5.32ZM38.87 10.58h1.08V5.61c0-.19-.11-.27-.3-.27h-.99v-.48h1.07c.55 0 .78.21.78.68v.44c0 .29-.03.51-.03.51h.03c.34-.96 1.07-1.68 2.13-1.68.2 0 .39.04.39.04v.52s-.16-.02-.31-.02c-1.58 0-2.21 1.78-2.21 3.05v2.2h1.08v.48h-2.73v-.48ZM44.75 5.33h-1.28v-.48h1.85v3.76c0 1.08.15 2.1 1.66 2.1 1.69 0 2.77-1.37 2.77-2.82V5.34h-1.28v-.48h1.85v5.47c0 .19.11.27.3.27h.81v.47h-.89c-.55 0-.78-.21-.78-.68v-.35c0-.29.03-.51.03-.51h-.03c-.23.58-1.13 1.69-2.77 1.69s-2.23-.85-2.23-2.43V5.33ZM55.98 4.7c.73 0 2.38.29 2.38 1.29v.6h-.57v-.48c0-.61-1.16-.9-1.81-.9-1.58 0-2.89 1.08-2.89 2.76s1.31 2.74 2.89 2.74c1.49 0 2.25-.9 2.25-.9l.3.44s-.88.97-2.55.97c-1.9 0-3.48-1.27-3.48-3.25s1.61-3.27 3.48-3.27ZM60.67 5.33h-1.28v-.48h1.28V3.12h.57v1.73h1.77v.48h-1.77v3.44c0 1.64 1.07 1.85 1.61 1.85.19 0 .31-.02.31-.02v.48s-.13.02-.34.02c-.7 0-2.15-.24-2.15-2.3V5.32ZM64.03 10.58h1.22V5.33h-1.28v-.48h1.85v5.73h1.22v.48h-3v-.48Zm1.14-8.22h.73v.91h-.73zM71.53 4.7c1.93 0 3.5 1.41 3.5 3.22s-1.57 3.3-3.5 3.3-3.5-1.44-3.5-3.3 1.57-3.22 3.5-3.22Zm0 6.01c1.61 0 2.9-1.21 2.9-2.79s-1.3-2.71-2.9-2.71-2.9 1.17-2.9 2.71 1.3 2.79 2.9 2.79ZM76.24 10.58h1.22V5.61c0-.19-.11-.27-.3-.27h-.99v-.48h1.07c.55 0 .78.21.78.68v.41c0 .29-.05.51-.05.51H78c.23-.58 1.17-1.75 2.86-1.75s2.23.96 2.23 2.42v3.46h1.22v.48h-1.78V7.31c0-1.08-.15-2.1-1.66-2.1-1.61 0-2.84 1.27-2.84 2.77v2.6h1.22v.48h-3v-.48ZM88.43 10.57h1.28l.66-7.71h-1.3v-.5h1.9l3.04 6.04c.11.22.18.41.18.41h.03s.07-.19.18-.41l3.04-6.04h1.9v.5h-1.3l.66 7.71h1.28v.5h-3.15v-.5h1.28l-.58-6.74c-.01-.19.01-.52.01-.52h-.03s-.09.32-.18.49l-2.85 5.6h-.59l-2.85-5.6c-.08-.16-.18-.49-.18-.49h-.03s.03.34.01.52l-.58 6.74h1.28v.5h-3.15v-.5ZM105.23 7.27h.45V7c0-1.33-.74-1.8-1.8-1.8-1.19 0-1.98.61-1.98.61l-.32-.42s.85-.68 2.32-.68c1.55 0 2.35.77 2.35 2.29v3.32c0 .19.11.27.3.27h.81v.48h-.89c-.55 0-.78-.21-.78-.68v-.14c0-.34.05-.56.05-.56h-.03s-.59 1.53-2.39 1.53c-1.08 0-2.27-.56-2.27-1.84 0-2.06 3.02-2.1 4.19-2.1Zm-1.92 3.46c1.55 0 2.36-1.41 2.36-2.64v-.34h-.43c-.5 0-3.61-.11-3.61 1.55 0 .72.58 1.42 1.67 1.42ZM109.12 5.33h-1.28v-.48h1.28V3.12h.57v1.73h1.77v.48h-1.77v3.44c0 1.64 1.07 1.85 1.61 1.85.19 0 .31-.02.31-.02v.48s-.13.02-.34.02c-.7 0-2.15-.24-2.15-2.3V5.32ZM115.86 4.7c1.84 0 2.75 1.33 2.75 2.84 0 .14-.03.34-.03.34h-5.42c0 1.8 1.32 2.83 2.89 2.83 1.3 0 2.09-.78 2.09-.78l.31.44s-.95.86-2.4.86c-1.9 0-3.48-1.27-3.48-3.25 0-2.1 1.55-3.27 3.28-3.27Zm2.16 2.69c-.07-1.52-1.05-2.2-2.17-2.2-1.24 0-2.39.75-2.63 2.2h4.81ZM119.98 10.58h1.08V5.61c0-.19-.11-.27-.3-.27h-.99v-.48h1.07c.55 0 .78.21.78.68v.44c0 .29-.03.51-.03.51h.03c.34-.96 1.07-1.68 2.13-1.68.2 0 .39.04.39.04v.52s-.16-.02-.31-.02c-1.58 0-2.21 1.78-2.21 3.05v2.2h1.08v.48h-2.73v-.48ZM124.93 10.58h1.22V5.33h-1.28v-.48h1.85v5.73h1.21v.48h-3zm1.14-8.22h.73v.91h-.73zM133.06 7.27h.45V7c0-1.33-.74-1.8-1.8-1.8-1.19 0-1.99.61-1.99.61l-.32-.42s.85-.68 2.32-.68c1.55 0 2.35.77 2.35 2.29v3.32c0 .19.11.27.3.27h.81v.48h-.89c-.55 0-.78-.21-.78-.68v-.14c0-.34.05-.56.05-.56h-.03s-.59 1.53-2.39 1.53c-1.08 0-2.27-.56-2.27-1.84 0-2.06 3.02-2.1 4.19-2.1Zm-1.91 3.46c1.55 0 2.36-1.41 2.36-2.64v-.34h-.43c-.5 0-3.61-.11-3.61 1.55 0 .72.58 1.42 1.67 1.42ZM136.75 2.85h-1.27v-.48h1.84v7.29c0 .48.15.96.8.96.26 0 .41-.02.41-.02v.48s-.24.02-.5.02c-.8 0-1.27-.44-1.27-1.39V2.85ZM139.53 9.21h.57v.47c0 .72 1.15 1.02 1.96 1.02.93 0 1.77-.4 1.77-1.13 0-.81-.96-1.11-1.94-1.46-1.03-.36-2.08-.77-2.08-1.82s1.11-1.6 2.19-1.6c.88 0 2.16.36 2.16 1.18v.68h-.57v-.51c0-.52-.78-.85-1.57-.85-.84 0-1.62.36-1.62 1.06 0 .76.9 1.07 1.85 1.41 1.05.37 2.17.78 2.17 1.85 0 .99-.95 1.69-2.42 1.69-1.26 0-2.47-.54-2.47-1.47V9.2ZM149.07 10.58h1.22V5.33h-1.28v-.48h1.28v-.34c0-1.95 1.38-2.19 2-2.19.3 0 .49.04.49.04v.48s-.18-.04-.45-.04c-.49 0-1.47.19-1.47 1.69v.35h1.8v.48h-1.8v5.25h1.42v.48h-3.2v-.48ZM157 4.7c1.93 0 3.5 1.41 3.5 3.22s-1.57 3.3-3.5 3.3-3.5-1.44-3.5-3.3 1.57-3.22 3.5-3.22Zm0 6.01c1.61 0 2.9-1.21 2.9-2.79s-1.3-2.71-2.9-2.71-2.9 1.17-2.9 2.71 1.3 2.79 2.9 2.79ZM161.79 10.58h1.08V5.61c0-.19-.11-.27-.3-.27h-.99v-.48h1.07c.55 0 .78.21.78.68v.44c0 .29-.03.51-.03.51h.03c.34-.96 1.07-1.68 2.13-1.68.2 0 .39.04.39.04v.52s-.16-.02-.31-.02c-1.58 0-2.21 1.78-2.21 3.05v2.2h1.08v.48h-2.73v-.48ZM170.96 8.8v.63c0 .8 1.08 1.27 2.25 1.27 1.35 0 2.32-.65 2.32-1.79 0-1.27-1.16-1.7-2.44-2.15-1.23-.42-2.54-.85-2.54-2.35 0-1.42 1.23-2.2 2.74-2.2 1.28 0 2.61.46 2.61 1.28v.83h-.59v-.66c0-.61-1.09-.95-2.01-.95-1.2 0-2.13.57-2.13 1.63 0 1.17 1.08 1.52 2.3 1.95 1.35.49 2.69.95 2.69 2.54 0 1.42-1.2 2.38-2.93 2.38-1.26 0-2.85-.52-2.85-1.65V8.8h.59ZM181.16 4.7c1.93 0 3.5 1.41 3.5 3.22s-1.57 3.3-3.5 3.3-3.5-1.44-3.5-3.3 1.57-3.22 3.5-3.22Zm0 6.01c1.61 0 2.9-1.21 2.9-2.79s-1.3-2.71-2.9-2.71-2.9 1.17-2.9 2.71 1.3 2.79 2.9 2.79ZM185.87 10.58h1.22V5.33h-1.28v-.48h1.28v-.34c0-1.95 1.38-2.19 2-2.19.3 0 .49.04.49.04v.48s-.18-.04-.45-.04c-.49 0-1.47.19-1.47 1.69v.35h1.8v.48h-1.8v5.25h1.42v.48h-3.2v-.48ZM191.32 5.33h-1.28v-.48h1.28V3.12h.57v1.73h1.77v.48h-1.77v3.44c0 1.64 1.07 1.85 1.61 1.85.19 0 .31-.02.31-.02v.48s-.13.02-.34.02c-.7 0-2.15-.24-2.15-2.3V5.32ZM194.19 4.85h2.59v.48h-1.09l1.65 4.69c.07.19.09.4.09.4h.03s.04-.21.11-.4l1.89-5.15h.62l1.89 5.15c.07.19.11.4.11.4h.03s.03-.21.09-.4l1.65-4.69h-1.09v-.48h2.59v.48h-.89l-2.08 5.73h-.57l-1.9-5.11c-.07-.19-.12-.41-.12-.41h-.03s-.05.22-.12.41l-1.9 5.11h-.57l-2.08-5.73h-.89v-.48ZM210.22 7.27h.45V7c0-1.33-.74-1.8-1.8-1.8-1.19 0-1.99.61-1.99.61l-.32-.42s.85-.68 2.32-.68c1.55 0 2.35.77 2.35 2.29v3.32c0 .19.11.27.3.27h.81v.48h-.89c-.55 0-.78-.21-.78-.68v-.14c0-.34.05-.56.05-.56h-.03s-.59 1.53-2.39 1.53c-1.08 0-2.27-.56-2.27-1.84 0-2.06 3.02-2.1 4.19-2.1Zm-1.91 3.46c1.55 0 2.36-1.41 2.36-2.64v-.34h-.43c-.5 0-3.61-.11-3.61 1.55 0 .72.58 1.42 1.67 1.42ZM213.37 10.58h1.08V5.61c0-.19-.11-.27-.3-.27h-.99v-.48h1.07c.55 0 .78.21.78.68v.44c0 .29-.03.51-.03.51h.03c.34-.96 1.07-1.68 2.13-1.68.2 0 .39.04.39.04v.52s-.16-.02-.31-.02c-1.58 0-2.21 1.78-2.21 3.05v2.2h1.08v.48h-2.73v-.48ZM221.58 4.7c1.84 0 2.75 1.33 2.75 2.84 0 .14-.03.34-.03.34h-5.42c0 1.8 1.32 2.83 2.89 2.83 1.3 0 2.09-.78 2.09-.78l.31.44s-.95.86-2.4.86c-1.9 0-3.48-1.27-3.48-3.25 0-2.1 1.55-3.27 3.28-3.27Zm2.16 2.69c-.07-1.52-1.05-2.2-2.17-2.2-1.24 0-2.39.75-2.63 2.2h4.81Z" class="st0"/></g></svg>